P2
18 2
255
0	255	128	64	0	255	128	64	0	255	128	64	10	12	0	255	128	12
3	90	135	180	3	90	135	180	3	90	135	180	1	5	3	90	12	180	
