P2
8 2
255
0 255 128 64 10 20 30 40
3 90 135 180 50 60 70 80
