P3
4 2
255
0 10 20   255 245 235   128 138 148   64  74  84
3 13 23   90  100 110   135 145 155   180 190 200
