P2
4 2
255
0 255 128 64
3 90 135 180
